<?xml version="1.0" encoding="utf-8"?>
<!-- Generator: Adobe Illustrator 16.0.0, SVG Export Plug-In . SVG Version: 6.00 Build 0)  -->
<!DOCTYPE svg PUBLIC "-//W3C//DTD SVG 1.1//EN" "http://www.w3.org/Graphics/SVG/1.1/DTD/svg11.dtd">
<svg version="1.1" id="Layer_1" xmlns="http://www.w3.org/2000/svg" xmlns:xlink="http://www.w3.org/1999/xlink" x="0px" y="0px"
	 width="102.047px" height="102.047px" viewBox="0 0 102.047 102.047" enable-background="new 0 0 102.047 102.047"
	 xml:space="preserve">
<g>
	<path fill="#010101" d="M85.414,14.453L85.414,14.453l-0.843-0.723l4.818-2.746l-1.142-1.745l-3.22-1.001L83.64,6.556L80.812,5.6
		l0.13,5.844l-0.512-0.229l-0.616-0.276c-5.013-2.243-9.991-2.516-11.915-2.515h-0.001h-0.004h-0.005
		c-4.622,0-8.295,1.255-10.855,2.544c-2.526,1.272-3.958,2.578-4.101,2.714L16.449,52.076l-0.001,0.001l-0.037,0.039
		c-4.539,4.732-7.342,11.126-7.342,18.179c0,7.251,2.949,13.82,7.71,18.584c4.767,4.764,11.334,7.711,18.586,7.712
		c7.836-0.001,14.86-3.464,19.684-8.924l0.001-0.002l0.488-0.547l0.059,0.046l36.586-46.612l0.056-0.311
		c0.493-2.703,0.738-5.255,0.738-7.643c-0.003-6.385-1.732-11.603-5.143-15.699C87.077,15.989,86.263,15.185,85.414,14.453z
		 M35.364,94.043c-13.096-0.003-23.749-10.652-23.75-23.749c0.001-13.098,10.654-23.747,23.75-23.749
		c13.096,0.002,23.749,10.651,23.75,23.749C59.113,83.391,48.46,94.04,35.364,94.043z M90.43,32.614v0.003v0.001
		c0,2.092-0.204,4.314-0.606,6.661v0.001l0,0.002l-0.035,0.192L61.19,75.914l0.3-2.722c0.106-0.959,0.169-1.924,0.169-2.897
		c0-7.253-2.948-13.821-7.709-18.585c-4.767-4.763-11.335-7.711-18.586-7.711c-2.35,0-4.616,0.34-6.795,0.923l-2.698,0.721
		l28.848-30.156l0.012-0.011l0.01-0.009c0.008-0.007,0.1-0.092,0.258-0.223l0.003-0.003c0.159-0.129,0.388-0.308,0.687-0.521
		c0.597-0.426,1.465-0.983,2.586-1.538c2.242-1.111,5.507-2.213,9.611-2.213c1.379,0,4.385,0.133,7.801,1.139
		c3.409,1.005,7.244,2.891,10.191,6.423c3.045,3.646,4.553,8.399,4.552,14.074V32.614z"/>
	<path fill="#010101" d="M28.708,61.75L28.708,61.75c0.531,0.53,1.259,0.854,2.067,0.854c0.81,0,1.537-0.324,2.067-0.854
		c0.53-0.532,0.854-1.258,0.854-2.067c0-0.811-0.324-1.535-0.854-2.067l0,0.001c-0.531-0.529-1.258-0.854-2.068-0.855
		c-0.808,0.001-1.536,0.326-2.068,0.855c-0.529,0.531-0.854,1.256-0.854,2.066C27.854,60.492,28.178,61.218,28.708,61.75z"/>
	<path fill="#010101" d="M24.539,66.661L24.539,66.661c-0.396-0.397-0.938-0.64-1.542-0.641c-0.605,0.001-1.145,0.243-1.542,0.641
		c-0.397,0.397-0.64,0.938-0.64,1.543s0.243,1.146,0.64,1.544c0.396,0.395,0.936,0.638,1.542,0.639
		c0.604-0.001,1.146-0.244,1.542-0.639c0.397-0.399,0.639-0.938,0.64-1.544C25.179,67.599,24.936,67.059,24.539,66.661z"/>
	<circle fill="#010101" cx="42.445" cy="58.758" r="1.44"/>
	<circle fill="#010101" cx="21.886" cy="81.54" r="1.44"/>
	<path fill="#010101" d="M38.279,70.015c0.795-0.001,1.438-0.644,1.439-1.439c-0.002-0.798-0.644-1.439-1.439-1.442
		c-0.799,0.004-1.439,0.645-1.44,1.441C36.84,69.371,37.481,70.014,38.279,70.015z"/>
	<path fill="#010101" d="M32.953,75.294L32.95,75.29c-0.462-0.463-1.094-0.746-1.804-0.747c-0.706,0.001-1.338,0.283-1.805,0.748
		c-0.462,0.464-0.747,1.097-0.747,1.804s0.285,1.338,0.748,1.805l-0.001-0.001c0.468,0.465,1.101,0.748,1.806,0.748
		c0.709,0,1.341-0.284,1.804-0.747l0.001-0.001c0.466-0.466,0.747-1.096,0.748-1.804C33.698,76.388,33.417,75.758,32.953,75.294z"/>
	<path fill="#010101" d="M49.25,70.474c-0.463-0.463-1.096-0.747-1.805-0.748c-0.708,0.001-1.342,0.286-1.804,0.748l0-0.001
		c-0.463,0.466-0.748,1.099-0.748,1.806c0,0.708,0.284,1.34,0.748,1.806c0.462,0.462,1.096,0.747,1.804,0.747
		c0.709,0,1.341-0.284,1.805-0.747c0.463-0.466,0.747-1.097,0.747-1.806C49.998,71.571,49.714,70.939,49.25,70.474z"/>
	<path fill="#010101" d="M44.403,81.436c-0.599-0.599-1.415-0.965-2.327-0.966c-0.912,0.001-1.732,0.368-2.331,0.966l0-0.001
		c-0.597,0.6-0.963,1.417-0.963,2.328c0,0.912,0.366,1.729,0.961,2.328l0.001,0.001c0.599,0.598,1.419,0.965,2.331,0.966
		c0.912-0.001,1.728-0.367,2.327-0.965c0.598-0.6,0.967-1.418,0.967-2.33C45.371,82.853,45.001,82.035,44.403,81.436z"/>
</g>
</svg>
