<?xml version="1.0" encoding="utf-8"?>
<!-- Generator: Adobe Illustrator 16.0.0, SVG Export Plug-In . SVG Version: 6.00 Build 0)  -->
<!DOCTYPE svg PUBLIC "-//W3C//DTD SVG 1.1//EN" "http://www.w3.org/Graphics/SVG/1.1/DTD/svg11.dtd">
<svg version="1.1" id="Layer_1" xmlns="http://www.w3.org/2000/svg" xmlns:xlink="http://www.w3.org/1999/xlink" x="0px" y="0px"
	 width="102.047px" height="102.047px" viewBox="0 0 102.047 102.047" enable-background="new 0 0 102.047 102.047"
	 xml:space="preserve">
<g>
	<path fill="#010101" d="M85.891,16.157C76.959,7.192,64.63,1.631,51.024,1.631S25.089,7.159,16.158,16.09
		C7.227,25.021,1.699,37.351,1.699,50.956s5.528,25.969,14.459,34.935c8.932,8.965,21.261,14.526,34.866,14.526
		c13.605,0,25.935-5.528,34.866-14.459c8.931-8.932,14.459-21.261,14.459-34.867S94.821,25.122,85.891,16.157z M85.437,18.312
		c7.751,8.16,12.649,19.042,13.057,31.012l0.012,0.367h-6.143h-0.419l0.069-0.413c0.163-0.956,0.541-1.864,0.788-2.862l0.002-0.007
		l0.002-0.007c0.499-1.69,1.052-3.42,1.05-5.066c-0.001-0.596-0.071-1.181-0.24-1.754V39.58l-0.002-0.004
		c-0.634-2.301-2.456-4.017-4.213-5.634c-1.226-1.089-2.326-2.184-3.036-3.318l-0.005-0.007l-0.004-0.008
		c-0.703-1.267-1.113-2.785-1.388-4.422c-0.4-2.011-0.937-3.992-1.973-5.542l-0.161-0.242l2.354-2.354L85.437,18.312z M52.02,3.976
		V3.609l0.366,0.013C64.354,4.03,75.235,8.79,83.396,16.408l0.268,0.25l-2.355,2.354l-0.241-0.161
		c-1.545-1.032-3.385-1.434-5.277-1.838l-0.006-0.001l-0.006-0.001c-1.605-0.404-3.116-0.671-4.406-1.384l-0.009-0.004l-0.007-0.005
		c-1.133-0.708-2.224-1.809-3.313-3.03v0c-1.619-1.759-3.336-3.584-5.64-4.219l-0.003,0l-0.002-0.001
		c-0.573-0.168-1.158-0.24-1.754-0.24C59,8.125,57.27,8.677,55.579,9.176c-1.096,0.408-2.188,0.683-3.155,0.821l-0.404,0.058V3.976z
		 M18.652,16.542C26.811,8.927,37.693,4.029,49.666,3.757l0.363-0.008v6.441l-0.405-0.058c-1.003-0.145-2.085-0.555-3.141-0.816
		l-0.007-0.002l-0.007-0.002c-1.69-0.499-3.421-1.052-5.066-1.05c-0.596,0-1.18,0.071-1.753,0.239l-0.002,0l-0.003,0.001
		c-2.304,0.636-4.021,2.46-5.64,4.219c-1.088,1.223-2.181,2.322-3.312,3.03l-0.008,0.005l-0.008,0.004
		c-1.266,0.703-2.782,1.113-4.417,1.387c-1.892,0.403-3.733,0.806-5.278,1.838l-0.242,0.161l-2.354-2.355L18.652,16.542z
		 M3.825,49.598c0.271-12.106,5.17-22.992,12.922-31.151l0.25-0.264l2.353,2.352l-0.161,0.242c-1.036,1.55-1.571,3.532-1.972,5.543
		l-0.002,0.008l-0.002,0.009c-0.404,1.605-0.67,3.116-1.384,4.406l-0.004,0.008l-0.005,0.008c-0.708,1.131-1.808,2.224-3.03,3.312
		c-1.759,1.619-3.583,3.336-4.219,5.64l-0.001,0.005C8.4,40.289,8.33,40.874,8.33,41.469c-0.002,1.646,0.55,3.376,1.049,5.067
		l0.002,0.007l0.002,0.007c0.26,1.047,0.669,1.995,0.817,3.005l0.058,0.405H3.817L3.825,49.598z M16.478,83.466
		C8.722,75.303,3.961,64.283,3.69,52.179l-0.008-0.362h6.569l-0.05,0.398c-0.145,1.138-0.554,2.222-0.816,3.408l-0.002,0.011
		l-0.003,0.012c-0.499,1.69-1.051,3.421-1.049,5.066c0,0.596,0.071,1.181,0.239,1.753l0,0.002l0.001,0.003
		c0.636,2.304,2.46,4.021,4.219,5.64c1.222,1.088,2.322,2.181,3.03,3.312l0.005,0.008l0.004,0.008
		c0.703,1.266,1.113,2.782,1.387,4.417c0.404,1.893,0.806,3.733,1.838,5.277l0.167,0.25l-2.501,2.335L16.478,83.466z M50.029,97.936
		v0.367l-0.366-0.013c-12.101-0.407-22.987-5.169-31.282-13.057l-0.263-0.25l2.352-2.353l0.242,0.161
		c1.55,1.036,3.532,1.571,5.543,1.972l0.008,0.002l0.008,0.002c1.605,0.404,3.116,0.67,4.406,1.384l0.008,0.004l0.008,0.005
		c1.131,0.708,2.224,1.808,3.312,3.03c1.617,1.757,3.332,3.579,5.631,4.217c0.678,0.136,1.183,0.26,1.803,0.259
		c1.682,0.001,3.404-0.523,5.018-1.062v0c1.101-0.412,2.198-0.687,3.167-0.826l0.405-0.059V97.936z M49.703,89.92
		c-1.302,0.131-2.627,0.525-3.832,0.927c-1.549,0.515-3.041,0.966-4.444,0.968c-0.439,0-0.871-0.045-1.289-0.15
		c-1.776-0.456-3.143-2.002-4.63-3.615v0l-0.002-0.003c-1.214-1.351-2.411-2.668-3.821-3.435l-0.01-0.005l-0.01-0.007
		c-1.407-0.899-3.253-1.303-4.994-1.569l-0.016-0.002l-0.016-0.004c-1.606-0.404-3.117-0.667-4.288-1.394l-0.04-0.024l-1.956-2.097
		l-0.023-0.045c-0.563-1.129-0.97-2.631-1.244-4.133c-0.404-1.753-0.807-3.477-1.585-4.901c-0.768-1.411-2.084-2.608-3.436-3.821
		l-0.002-0.002l-0.001,0c-1.612-1.488-3.158-2.854-3.614-4.63c-0.105-0.419-0.15-0.851-0.15-1.291
		c0.002-1.4,0.451-2.888,0.964-4.433c0.401-1.337,0.795-2.661,1.062-4.104l-0.265-2.643c-0.129-1.301-0.522-2.488-0.929-3.704
		c-0.514-1.549-0.966-3.039-0.968-4.442c0-0.44,0.045-0.872,0.15-1.291c0.456-1.777,2.002-3.143,3.615-4.63l0,0l0.002-0.001
		c1.351-1.214,2.668-2.41,3.436-3.821l0.006-0.011l0.006-0.01c0.899-1.407,1.303-3.255,1.569-4.862l0.002-0.014l0.003-0.014
		c0.403-1.605,0.671-3.117,1.384-4.406l0.027-0.049l2.104-1.964l0.046-0.023c1.128-0.563,2.63-0.969,4.132-1.244
		c1.753-0.403,3.478-0.807,4.9-1.584c1.412-0.768,2.608-2.085,3.823-3.437h0l0.001-0.002c1.487-1.613,2.853-3.159,4.629-3.615
		c0.419-0.104,0.85-0.15,1.29-0.15c1.4,0.002,2.887,0.451,4.433,0.965v0c1.352,0.407,2.541,0.799,3.835,0.93h2.791
		c1.3-0.131,2.622-0.525,3.825-0.926c1.55-0.515,3.04-0.966,4.443-0.968c0.439,0,0.871,0.045,1.29,0.15
		c1.776,0.456,3.143,2.002,4.63,3.615l0.001,0L66.543,14c1.214,1.351,2.41,2.668,3.821,3.436l0.01,0.006l0.011,0.006
		c1.407,0.898,3.253,1.303,4.993,1.568l0.005,0l0.005,0.001c1.51,0.274,2.888,0.687,4.13,1.24l0.061,0.027l1.971,1.972l0.024,0.043
		c0.714,1.289,0.981,2.799,1.383,4.264l0.002,0.006l0.002,0.007c0.403,1.753,0.805,3.476,1.589,5.044
		c0.767,1.409,2.083,2.604,3.433,3.817v0l0.002,0.001c1.604,1.48,3.143,2.841,3.606,4.605l0.001,0l0.002,0.009l0.006,0.017l-0.002,0
		c0.148,0.454,0.211,0.923,0.211,1.398c-0.004,1.383-0.492,2.826-0.886,4.313l-0.003,0.01l-0.004,0.01
		c-0.402,1.207-0.8,2.54-0.928,3.708l-0.133,2.644c0.133,1.302,0.525,2.753,1.054,4.07l0.008,0.02l0.006,0.021
		c0.418,1.582,0.94,3.104,0.944,4.489c0,0.373-0.039,0.737-0.135,1.088h0.001l-0.001,0.004l-0.001,0.003h-0.001
		c-0.457,1.774-2.001,3.138-3.61,4.624l-0.001,0l-0.001,0.001c-1.353,1.214-2.669,2.411-3.438,3.822l-0.006,0.01l-0.006,0.01
		c-0.897,1.407-1.303,3.256-1.569,4.863v0.001l-0.001,0.003c-0.274,1.508-0.687,2.886-1.238,4.13l-0.027,0.061l-2.106,2.107
		l-0.044,0.024c-1.29,0.712-2.799,0.98-4.265,1.382l-0.006,0.002l-0.007,0.001c-1.756,0.404-3.48,0.807-4.905,1.586
		c-1.411,0.767-2.606,2.084-3.821,3.437l-0.003,0.002c-1.486,1.612-2.854,3.158-4.629,3.614c-0.42,0.105-0.852,0.15-1.292,0.15
		c-1.4-0.002-2.888-0.451-4.432-0.964c-1.352-0.406-2.537-0.798-3.828-0.929L49.703,89.92z M83.667,85.37
		c-8.293,7.75-19.179,12.649-31.285,12.92l-0.362,0.008v-6.44l0.404,0.058c1.004,0.146,2.086,0.554,3.142,0.817l0.007,0.002
		l0.007,0.002c1.69,0.499,3.42,1.051,5.065,1.049c0.597,0,1.181-0.071,1.755-0.239l0.002-0.001l0.003,0
		c2.304-0.635,4.021-2.459,5.64-4.219v0c1.089-1.222,2.182-2.322,3.313-3.03l0.008-0.005l0.008-0.004
		c1.268-0.704,2.785-1.114,4.423-1.388c2.01-0.401,3.992-0.937,5.544-1.972l0.241-0.161l2.354,2.354L83.667,85.37z M98.493,52.183
		c-0.407,12.104-5.305,22.986-12.918,31.278l-0.25,0.272l-2.356-2.358l0.161-0.242c1.032-1.545,1.435-3.385,1.838-5.277l0.001-0.004
		l0.002-0.007c0.404-1.605,0.671-3.116,1.384-4.406l0.005-0.009l0.004-0.007c0.71-1.133,1.811-2.227,3.036-3.317
		c1.757-1.617,3.579-3.333,4.213-5.635l0.002-0.005c0.169-0.573,0.239-1.158,0.24-1.754c0.002-1.645-0.551-3.375-1.05-5.065
		c-0.407-1.226-0.683-2.326-0.821-3.431l-0.05-0.398h6.571L98.493,52.183z"/>
	<path fill="#010101" d="M59.71,41.567l1.929,1.943l9.467-9.484v8.409h2.737V30.73c-0.001-0.756-0.613-1.367-1.369-1.368H60.771
		l-0.001,2.736h8.408L59.71,41.567z"/>
	<path fill="#010101" d="M44.634,60.499l-1.928-1.928l-9.467,9.466V59.63h-2.737v11.704c0.001,0.755,0.613,1.367,1.368,1.369
		l11.704,0v-2.738h-8.407L44.634,60.499z"/>
</g>
</svg>
