<?xml version="1.0" encoding="utf-8"?>
<!-- Generator: Adobe Illustrator 16.0.0, SVG Export Plug-In . SVG Version: 6.00 Build 0)  -->
<!DOCTYPE svg PUBLIC "-//W3C//DTD SVG 1.1//EN" "http://www.w3.org/Graphics/SVG/1.1/DTD/svg11.dtd">
<svg version="1.1" id="Layer_1" xmlns="http://www.w3.org/2000/svg" xmlns:xlink="http://www.w3.org/1999/xlink" x="0px" y="0px"
	 width="102.047px" height="102.047px" viewBox="0 0 102.047 102.047" enable-background="new 0 0 102.047 102.047"
	 xml:space="preserve">
<g>
	<path fill="#010101" d="M85.89,16.157C76.958,7.192,64.629,1.631,51.024,1.631c-13.605,0-25.935,5.528-34.866,14.459
		C7.227,25.021,1.698,37.351,1.698,50.956s5.528,25.969,14.46,34.935c8.932,8.965,21.261,14.526,34.866,14.526
		c13.605,0,25.935-5.528,34.866-14.459c8.931-8.932,14.459-21.261,14.459-34.867S94.821,25.122,85.89,16.157z M3.825,49.598
		c0.272-12.106,5.17-22.992,12.922-31.151l0.25-0.264l2.353,2.352l-0.161,0.242c-1.036,1.55-1.572,3.532-1.972,5.543l-0.002,0.008
		l-0.002,0.008c-0.404,1.605-0.671,3.116-1.384,4.406l-0.004,0.008l-0.005,0.008c-0.708,1.131-1.808,2.224-3.03,3.312
		c-1.759,1.62-3.584,3.336-4.219,5.64l0,0.002l-0.001,0.003c-0.168,0.573-0.24,1.158-0.24,1.754
		c-0.002,1.646,0.551,3.375,1.049,5.066l0.002,0.007l0.002,0.007c0.26,1.047,0.67,1.995,0.817,3.005l0.058,0.405H3.816L3.825,49.598
		z M11.265,56.254c0.405-1.35,0.805-2.686,1.071-4.146l0.053-0.291h35.396h0.855L20.552,79.904l-0.22-0.439
		c-0.563-1.128-0.969-2.631-1.244-4.133c-0.404-1.753-0.807-3.477-1.585-4.901c-0.767-1.411-2.085-2.608-3.436-3.821l-0.001-0.001
		l-0.001-0.001c-1.612-1.488-3.158-2.854-3.614-4.63c-0.105-0.419-0.15-0.851-0.15-1.291C10.302,59.286,10.751,57.799,11.265,56.254
		z M47.899,49.221l0.605,0.605H12.093l-0.032-0.319c-0.129-1.3-0.522-2.488-0.928-3.703c-0.515-1.548-0.966-3.039-0.968-4.442
		c0-0.44,0.045-0.872,0.15-1.291c0.456-1.777,2.002-3.143,3.614-4.63l0.001-0.001l0.001,0c1.352-1.214,2.668-2.411,3.436-3.821
		l0.006-0.011l0.006-0.01c0.899-1.407,1.303-3.255,1.57-4.863l0.002-0.014l0.003-0.014c0.403-1.606,0.67-3.117,1.384-4.406
		l0.228-0.411L47.899,49.221z M22.076,20.484l0.44-0.22c1.128-0.563,2.629-0.969,4.132-1.244c1.753-0.403,3.478-0.807,4.901-1.585
		c1.411-0.768,2.607-2.084,3.822-3.436l0.001-0.001l0.001-0.001c1.487-1.613,2.853-3.159,4.63-3.615
		c0.419-0.104,0.85-0.15,1.29-0.15c1.4,0.002,2.888,0.451,4.433,0.965v0c1.357,0.408,2.548,0.802,3.848,0.932l0.319,0.032v36.141
		l-27.469-27.47L22.076,20.484z M16.477,83.466C8.722,75.303,3.961,64.282,3.69,52.179l-0.008-0.362h6.569l-0.05,0.398
		c-0.145,1.139-0.554,2.222-0.816,3.408l-0.002,0.011l-0.003,0.012c-0.499,1.69-1.051,3.42-1.049,5.066
		c0,0.596,0.071,1.181,0.24,1.754l0.001,0.003l0,0.002c0.635,2.304,2.46,4.021,4.219,5.64c1.222,1.088,2.321,2.181,3.03,3.312
		l0.005,0.008l0.004,0.008c0.702,1.266,1.113,2.782,1.387,4.417c0.403,1.893,0.806,3.733,1.838,5.277l0.167,0.25l-2.502,2.335
		L16.477,83.466z M50.029,97.936v0.367l-0.366-0.013c-12.102-0.407-22.988-5.169-31.283-13.057l-0.263-0.25l2.352-2.353l0.242,0.161
		c1.551,1.036,3.533,1.571,5.543,1.972l0.009,0.002l0.008,0.002c1.605,0.404,3.116,0.67,4.406,1.384l0.008,0.004l0.007,0.005
		c1.132,0.708,2.225,1.808,3.313,3.03c1.617,1.757,3.332,3.579,5.631,4.217c0.678,0.136,1.183,0.26,1.803,0.259
		c1.682,0.001,3.404-0.523,5.018-1.062v0c1.1-0.412,2.198-0.687,3.167-0.826l0.405-0.058V97.936z M50.029,89.566v0.321l-0.319,0.032
		c-1.304,0.13-2.631,0.525-3.838,0.928c-1.549,0.515-3.04,0.966-4.444,0.968c-0.439,0-0.871-0.045-1.289-0.15
		c-1.777-0.456-3.143-2.002-4.63-3.615l-0.001-0.001l-0.001-0.001c-1.214-1.352-2.411-2.669-3.821-3.436l-0.011-0.006l-0.01-0.006
		c-1.407-0.899-3.253-1.303-4.994-1.569l-0.016-0.002l-0.016-0.004c-1.606-0.404-3.116-0.667-4.287-1.393l-0.378-0.236
		l28.056-28.054V89.566z M50.029,9.781v0.409l-0.405-0.058c-1.003-0.146-2.085-0.555-3.141-0.817l-0.007-0.002l-0.007-0.002
		c-1.69-0.499-3.42-1.051-5.066-1.049c-0.596,0-1.181,0.071-1.753,0.239l-0.003,0.001l-0.002,0c-2.304,0.636-4.021,2.46-5.64,4.219
		c-1.088,1.223-2.181,2.322-3.313,3.03l-0.007,0.005l-0.008,0.004c-1.266,0.703-2.782,1.113-4.417,1.387
		c-1.892,0.403-3.733,0.806-5.277,1.838l-0.242,0.161l-2.355-2.355l0.268-0.25C26.811,8.927,37.693,4.029,49.667,3.757l0.362-0.008
		V9.781z M85.185,18.048l0.25,0.264c7.752,8.16,12.649,19.042,13.057,31.012l0.013,0.367h-6.563l0.069-0.414
		c0.164-0.956,0.54-1.863,0.788-2.862l0.002-0.007l0.002-0.007c0.499-1.691,1.051-3.421,1.049-5.067
		c0-0.596-0.071-1.181-0.239-1.753l-0.001-0.003l0-0.002c-0.636-2.303-2.46-4.021-4.219-5.639c-1.223-1.088-2.322-2.181-3.031-3.313
		l-0.005-0.008l-0.004-0.008c-0.703-1.267-1.113-2.785-1.387-4.422h0c-0.4-2.011-0.937-3.992-1.973-5.542l-0.161-0.242l2.096-2.096
		L85.185,18.048z M91.732,61.842l-0.001,0.004l-0.001,0.003h0c-0.458,1.774-2.001,3.138-3.612,4.624l-0.002,0.002
		c-1.352,1.214-2.669,2.411-3.436,3.822l-0.006,0.011l-0.006,0.01c-0.898,1.407-1.303,3.256-1.569,4.862l0,0.002l0,0.003
		c-0.274,1.508-0.687,2.886-1.24,4.13l-0.208,0.469L54.014,52.423l-0.612-0.606H89.82l0.032,0.319
		c0.13,1.306,0.526,2.765,1.057,4.088l0.008,0.02l0.005,0.021c0.419,1.582,0.941,3.104,0.945,4.489
		C91.867,61.127,91.827,61.491,91.732,61.842L91.732,61.842z M80.092,81.278l-0.411,0.228c-1.289,0.713-2.799,0.98-4.264,1.382
		l-0.007,0.002l-0.007,0.001c-1.756,0.404-3.48,0.807-4.905,1.586c-1.411,0.767-2.607,2.084-3.822,3.437l0,0l-0.001,0.001
		c-1.487,1.612-2.853,3.158-4.63,3.614c-0.419,0.105-0.851,0.15-1.292,0.15c-1.4-0.002-2.886-0.451-4.431-0.964v0
		c-1.357-0.408-2.549-0.803-3.848-0.933l-0.319-0.032V53.341L79.76,80.946L80.092,81.278z M91.589,40.045L91.589,40.045l0.003,0.009
		l0.006,0.017l-0.001,0c0.148,0.455,0.21,0.924,0.21,1.4c-0.003,1.382-0.491,2.825-0.885,4.312l-0.003,0.01l-0.003,0.01
		c-0.402,1.207-0.8,2.54-0.929,3.707l-0.035,0.315H54.264h-0.855l27.937-27.937l0.228,0.41c0.713,1.289,0.98,2.799,1.382,4.264
		l0.002,0.006l0.001,0.007c0.404,1.752,0.806,3.476,1.588,5.043c0.767,1.41,2.083,2.605,3.434,3.818l0.002,0.001v0
		C89.588,36.92,91.125,38.281,91.589,40.045z M52.02,3.976V3.609l0.367,0.013C64.353,4.03,75.235,8.79,83.396,16.407l0.268,0.25
		l-2.355,2.354l-0.242-0.161c-1.544-1.032-3.385-1.435-5.277-1.838l-0.006-0.001l-0.006-0.001c-1.605-0.404-3.116-0.671-4.406-1.384
		l-0.008-0.004l-0.008-0.005c-1.131-0.708-2.224-1.808-3.313-3.03c-1.619-1.759-3.336-3.583-5.639-4.219l-0.002,0l-0.003-0.001
		c-0.573-0.168-1.158-0.24-1.754-0.24C59,8.125,57.27,8.677,55.579,9.176c-1.096,0.408-2.189,0.683-3.155,0.82l-0.404,0.058V3.976z
		 M52.02,12.481V12.16l0.319-0.032c1.304-0.13,2.631-0.525,3.838-0.928c1.549-0.515,3.04-0.966,4.443-0.968
		c0.44,0,0.871,0.045,1.29,0.15c1.776,0.456,3.143,2.002,4.63,3.615l0,0l0.001,0.001c1.214,1.352,2.411,2.669,3.822,3.436
		l0.01,0.006l0.01,0.006c1.407,0.898,3.253,1.303,4.994,1.569l0.005,0l0.005,0.001c1.509,0.274,2.886,0.688,4.13,1.24l0.471,0.209
		l-27.97,27.97V12.481z M83.666,85.37c-8.293,7.75-19.178,12.649-31.284,12.92l-0.362,0.008v-6.44l0.405,0.058
		c1.003,0.146,2.085,0.554,3.141,0.817l0.007,0.002l0.007,0.002c1.69,0.499,3.42,1.051,5.065,1.049c0.596,0,1.181-0.071,1.754-0.239
		l0.004-0.001l0.001,0c2.303-0.635,4.021-2.459,5.639-4.219c1.088-1.222,2.181-2.322,3.313-3.03l0.008-0.005l0.008-0.004
		c1.268-0.704,2.785-1.113,4.422-1.388v0c2.011-0.401,3.992-0.937,5.543-1.972l0.241-0.161l2.355,2.354L83.666,85.37z
		 M98.493,52.183c-0.408,12.104-5.305,22.986-12.917,31.278l-0.25,0.272l-2.356-2.358l0.161-0.241
		c1.032-1.545,1.435-3.386,1.838-5.278l0.001-0.006l0.001-0.006c0.403-1.605,0.67-3.116,1.384-4.406l0.004-0.008l0.005-0.008
		c0.708-1.131,1.808-2.224,3.031-3.312c1.758-1.619,3.583-3.336,4.219-5.64l0.001-0.003l0-0.002
		c0.168-0.573,0.239-1.157,0.239-1.753c0.002-1.646-0.551-3.376-1.049-5.066h0c-0.408-1.225-0.685-2.325-0.822-3.431l-0.05-0.398
		h6.572L98.493,52.183z"/>
</g>
</svg>
