<?xml version="1.0" encoding="utf-8"?>
<!-- Generator: Adobe Illustrator 16.0.0, SVG Export Plug-In . SVG Version: 6.00 Build 0)  -->
<!DOCTYPE svg PUBLIC "-//W3C//DTD SVG 1.1//EN" "http://www.w3.org/Graphics/SVG/1.1/DTD/svg11.dtd">
<svg version="1.1" id="Layer_1" xmlns="http://www.w3.org/2000/svg" xmlns:xlink="http://www.w3.org/1999/xlink" x="0px" y="0px"
	 width="102.047px" height="102.047px" viewBox="0 0 102.047 102.047" enable-background="new 0 0 102.047 102.047"
	 xml:space="preserve">
<g>
	<path fill="#010101" d="M85.889,16.157C76.957,7.192,64.628,1.631,51.023,1.631c-13.605,0-25.935,5.528-34.866,14.459
		C7.227,25.021,1.698,37.351,1.698,50.956s5.528,25.969,14.46,34.935c8.932,8.965,21.261,14.526,34.865,14.526
		c13.605,0,25.935-5.528,34.866-14.459c8.931-8.932,14.459-21.261,14.459-34.867C100.349,37.486,94.82,25.122,85.889,16.157z
		 M85.435,18.313c7.753,8.159,12.649,19.042,13.059,31.011l0.012,0.367h-6.144h-0.419l0.069-0.414
		c0.164-0.956,0.541-1.863,0.788-2.862l0.002-0.007l0.002-0.007c0.499-1.69,1.051-3.42,1.049-5.065c0-0.596-0.071-1.181-0.239-1.754
		l-0.001-0.002l-0.001-0.003c-0.635-2.304-2.459-4.021-4.218-5.64c-1.223-1.088-2.321-2.18-3.03-3.312l-0.005-0.008l-0.004-0.007
		c-0.704-1.268-1.115-2.786-1.389-4.423c-0.401-2.011-0.937-3.992-1.972-5.542l-0.161-0.242l2.351-2.353L85.435,18.313z
		 M52.02,3.976V3.609l0.366,0.013C64.352,4.03,75.233,8.791,83.395,16.407l0.269,0.25l-2.354,2.355l-0.241-0.161
		c-1.546-1.033-3.387-1.435-5.278-1.839l-0.006-0.001l-0.006-0.001c-1.604-0.403-3.116-0.67-4.405-1.384l-0.009-0.004l-0.007-0.005
		c-1.132-0.708-2.225-1.808-3.314-3.031v0c-1.618-1.759-3.336-3.583-5.638-4.218l-0.003-0.001l-0.003,0
		c-0.573-0.169-1.158-0.24-1.755-0.24c-1.646-0.002-3.375,0.551-5.065,1.049v0c-1.097,0.409-2.188,0.684-3.154,0.821l-0.404,0.058
		V3.976z M18.651,16.542c8.16-7.614,19.042-12.513,31.015-12.784l0.362-0.008v6.441l-0.405-0.058
		c-1.003-0.146-2.085-0.555-3.141-0.817l-0.007-0.001l-0.007-0.002c-1.69-0.499-3.421-1.051-5.066-1.049
		c-0.596,0-1.181,0.071-1.754,0.239l-0.002,0.001l-0.003,0c-2.303,0.635-4.021,2.459-5.639,4.219v0
		c-1.09,1.223-2.183,2.322-3.314,3.03l-0.007,0.004l-0.009,0.005c-1.266,0.702-2.782,1.113-4.417,1.387
		c-1.892,0.404-3.732,0.807-5.278,1.839l-0.241,0.161l-2.354-2.355L18.651,16.542z M3.823,49.599
		c0.273-12.107,5.172-22.993,12.923-31.151l0.25-0.263l2.354,2.352l-0.161,0.242c-1.036,1.55-1.571,3.531-1.972,5.542l-0.002,0.007
		l-0.002,0.01c-0.404,1.605-0.672,3.117-1.385,4.406l-0.005,0.009l-0.004,0.007c-0.709,1.132-1.808,2.225-3.03,3.313
		c-1.759,1.62-3.584,3.336-4.219,5.639l-0.002,0.005c-0.169,0.573-0.24,1.158-0.24,1.754c-0.002,1.645,0.551,3.375,1.05,5.066
		l0.002,0.008l0.002,0.006c0.26,1.046,0.671,1.995,0.817,3.006l0.058,0.404H3.815L3.823,49.599z M16.477,83.466
		C8.722,75.303,3.961,64.282,3.689,52.179l-0.008-0.362h6.568l-0.05,0.398c-0.145,1.139-0.554,2.223-0.816,3.408l-0.003,0.012
		l-0.003,0.011c-0.499,1.69-1.052,3.42-1.05,5.066c0,0.596,0.071,1.181,0.24,1.754l0.001,0.002l0.001,0.003
		c0.635,2.303,2.46,4.021,4.219,5.639c1.223,1.088,2.321,2.181,3.03,3.313l0.005,0.008l0.004,0.008
		c0.703,1.266,1.113,2.781,1.388,4.417c0.403,1.893,0.805,3.732,1.838,5.278l0.167,0.25l-2.502,2.335L16.477,83.466z M50.028,97.936
		v0.367l-0.366-0.013c-12.102-0.406-22.988-5.169-31.282-13.056l-0.264-0.25l2.353-2.353l0.241,0.161
		c1.551,1.036,3.532,1.572,5.543,1.973l0.008,0.002l0.009,0.002c1.604,0.404,3.115,0.67,4.405,1.384l0.009,0.004l0.007,0.005
		c1.132,0.708,2.225,1.808,3.314,3.03v0c1.616,1.757,3.332,3.579,5.631,4.217c0.677,0.136,1.184,0.26,1.803,0.259
		c1.682,0.001,3.404-0.523,5.018-1.062v0.001c1.102-0.412,2.198-0.687,3.167-0.826l0.405-0.058V97.936z M49.703,89.92
		c-1.302,0.13-2.627,0.524-3.832,0.927c-1.55,0.515-3.04,0.966-4.443,0.968c-0.44,0-0.871-0.045-1.29-0.15
		c-1.776-0.456-3.144-2.002-4.631-3.615l-0.002-0.002c-1.215-1.352-2.409-2.668-3.821-3.435l-0.01-0.005l-0.011-0.007
		c-1.406-0.899-3.253-1.303-4.993-1.57l-0.017-0.002l-0.016-0.004c-1.606-0.404-3.115-0.667-4.287-1.393l-0.04-0.025l-1.956-2.097
		l-0.022-0.045c-0.563-1.127-0.97-2.628-1.244-4.129c-0.403-1.754-0.807-3.48-1.586-4.905c-0.768-1.411-2.084-2.608-3.437-3.82
		l-0.002-0.002c-1.612-1.488-3.157-2.855-3.613-4.63c-0.105-0.419-0.15-0.852-0.15-1.292c0.002-1.4,0.45-2.887,0.965-4.432h-0.001
		c0.402-1.336,0.796-2.66,1.062-4.104l-0.265-2.644c-0.13-1.3-0.522-2.487-0.928-3.703c-0.515-1.549-0.967-3.04-0.969-4.443
		c0-0.439,0.045-0.871,0.15-1.29c0.456-1.777,2.003-3.143,3.615-4.63l0.002-0.002c1.352-1.214,2.669-2.411,3.435-3.821l0.006-0.011
		l0.007-0.01c0.899-1.408,1.304-3.255,1.57-4.863l0.002-0.014l0.004-0.014c0.403-1.605,0.671-3.116,1.384-4.406l0.027-0.049
		l2.104-1.962l0.046-0.023c1.127-0.563,2.627-0.968,4.128-1.243c1.756-0.404,3.48-0.807,4.905-1.586
		c1.411-0.767,2.607-2.085,3.821-3.436l0.003-0.002c1.487-1.613,2.854-3.159,4.63-3.615c0.418-0.104,0.85-0.15,1.288-0.15
		c1.401,0.002,2.889,0.451,4.436,0.965c1.352,0.406,2.539,0.798,3.835,0.93h2.791c1.299-0.132,2.621-0.525,3.824-0.927
		c1.549-0.515,3.04-0.966,4.443-0.968c0.439,0,0.871,0.045,1.29,0.15c1.775,0.456,3.143,2.002,4.629,3.615l0.003,0.002
		c1.215,1.352,2.409,2.669,3.821,3.436l0.01,0.006l0.011,0.006c1.406,0.898,3.253,1.302,4.994,1.569l0.005,0l0.005,0.001
		c1.509,0.275,2.886,0.687,4.13,1.24l0.061,0.027l1.971,1.971l0.024,0.044c0.713,1.29,0.979,2.799,1.382,4.264l0.002,0.008
		l0.002,0.005c0.404,1.754,0.805,3.478,1.59,5.047c0.77,1.408,2.083,2.603,3.433,3.813l0.002,0.002
		c1.604,1.48,3.141,2.84,3.604,4.604l0.001,0l0.003,0.011l0.005,0.015l-0.001,0c0.148,0.456,0.211,0.925,0.211,1.401
		c-0.004,1.382-0.492,2.824-0.887,4.311l-0.003,0.011l-0.003,0.009c-0.402,1.207-0.8,2.54-0.928,3.707l-0.132,2.645
		c0.132,1.302,0.526,2.753,1.053,4.07l0.008,0.02l0.005,0.021c0.42,1.582,0.942,3.104,0.946,4.49c0,0.374-0.04,0.737-0.134,1.088
		l-0.001,0.004l-0.001,0.003c-0.459,1.774-2.002,3.138-3.613,4.623l-0.002,0.002c-1.352,1.215-2.669,2.411-3.435,3.822l-0.006,0.011
		l-0.007,0.01c-0.898,1.407-1.304,3.256-1.569,4.862l-0.001,0.005c-0.275,1.508-0.687,2.886-1.241,4.13l-0.026,0.06l-2.105,2.107
		l-0.044,0.024c-1.289,0.713-2.799,0.98-4.264,1.382l-0.006,0.002l-0.007,0.001c-1.757,0.404-3.481,0.807-4.906,1.586
		c-1.411,0.768-2.607,2.085-3.82,3.437v0l-0.003,0.003c-1.488,1.611-2.854,3.158-4.631,3.613c-0.419,0.105-0.852,0.15-1.292,0.15
		c-1.399-0.002-2.886-0.45-4.431-0.964c-1.35-0.406-2.537-0.798-3.828-0.93L49.703,89.92z M83.666,85.37
		c-8.293,7.749-19.178,12.648-31.284,12.919l-0.362,0.008v-6.44l0.404,0.058c1.003,0.145,2.085,0.554,3.141,0.816l0.007,0.001
		l0.007,0.002c1.69,0.5,3.42,1.051,5.065,1.049c0.597,0,1.182-0.071,1.756-0.24l0.003-0.001l0.002,0
		c2.302-0.635,4.02-2.459,5.638-4.218v0c1.09-1.223,2.183-2.322,3.314-3.03l0.007-0.005l0.009-0.004
		c1.267-0.705,2.785-1.114,4.422-1.389c2.011-0.401,3.993-0.936,5.543-1.972l0.241-0.161l2.355,2.354L83.666,85.37z M98.493,52.183
		c-0.408,12.104-5.305,22.986-12.919,31.279l-0.25,0.272l-2.356-2.358l0.161-0.241c1.031-1.545,1.434-3.386,1.838-5.278l0.001-0.004
		l0.002-0.007c0.404-1.605,0.671-3.116,1.385-4.406l0.004-0.007l0.005-0.008c0.709-1.131,1.808-2.225,3.03-3.313
		c1.759-1.618,3.583-3.336,4.218-5.639l0.001-0.002l0.001-0.003c0.168-0.573,0.239-1.158,0.239-1.754
		c0.002-1.646-0.55-3.376-1.049-5.066c-0.407-1.225-0.683-2.325-0.822-3.431l-0.05-0.398h6.573L98.493,52.183z"/>
	<path fill="#010101" d="M49.384,47.793c0,1.296-1.05,2.347-2.347,2.348H27.613c-0.904,0.001-1.637,0.734-1.639,1.639
		c0.002,0.906,0.733,1.637,1.639,1.639h19.423c1.298,0,2.348,1.051,2.348,2.348v19.424c0.002,0.904,0.734,1.636,1.64,1.638
		c0.905-0.001,1.637-0.733,1.639-1.638V55.766c0-1.296,1.051-2.347,2.348-2.348h19.423c0.904-0.001,1.638-0.734,1.639-1.639
		c-0.001-0.906-0.733-1.637-1.639-1.639H55.01c-1.297,0-2.348-1.051-2.348-2.348V28.369c-0.002-0.903-0.735-1.637-1.639-1.639
		c-0.905,0.001-1.638,0.735-1.64,1.639V47.793z"/>
</g>
</svg>
