<?xml version="1.0" encoding="utf-8"?>
<!-- Generator: Adobe Illustrator 16.0.0, SVG Export Plug-In . SVG Version: 6.00 Build 0)  -->
<!DOCTYPE svg PUBLIC "-//W3C//DTD SVG 1.1//EN" "http://www.w3.org/Graphics/SVG/1.1/DTD/svg11.dtd">
<svg version="1.1" id="Layer_1" xmlns="http://www.w3.org/2000/svg" xmlns:xlink="http://www.w3.org/1999/xlink" x="0px" y="0px"
	 width="102.047px" height="102.047px" viewBox="0 0 102.047 102.047" enable-background="new 0 0 102.047 102.047"
	 xml:space="preserve">
<g>
	<path fill="#010101" d="M80.358,5.456H21.689c-2.856,0.001-5.432,1.155-7.305,3.027c-1.872,1.872-3.026,4.448-3.026,7.305v70.471
		c0,2.856,1.154,5.433,3.026,7.306c1.873,1.871,4.449,3.025,7.305,3.026h58.669c2.856-0.001,5.433-1.155,7.305-3.025
		c1.872-1.874,3.026-4.45,3.026-7.307V15.788c0-2.856-1.154-5.433-3.026-7.305S83.215,5.457,80.358,5.456z M88.078,86.259
		c-0.001,4.264-3.456,7.72-7.72,7.72H21.689c-4.264,0-7.718-3.456-7.719-7.72V15.788c0.001-4.264,3.456-7.72,7.719-7.72h58.669
		c4.264,0,7.719,3.456,7.72,7.72V86.259z"/>
	<path fill="#010101" d="M30.906,50.665c-0.243-0.239-0.561-0.383-0.923-0.383h-4.456c-0.365,0-0.685,0.145-0.924,0.383
		c-0.238,0.239-0.382,0.557-0.383,0.922c0.002,0.365,0.145,0.684,0.383,0.924c0.24,0.238,0.559,0.382,0.925,0.382h4.456
		c0.364,0,0.681-0.144,0.923-0.382c0.237-0.242,0.38-0.561,0.382-0.924C31.287,51.224,31.143,50.905,30.906,50.665z"/>
	<path fill="#010101" d="M76.521,50.282H40.069c-0.363,0-0.682,0.145-0.924,0.384c-0.238,0.24-0.38,0.558-0.381,0.921
		c0,0.365,0.144,0.683,0.381,0.924c0.242,0.238,0.561,0.382,0.924,0.382h36.453c0.365,0,0.684-0.144,0.924-0.381
		c0.239-0.241,0.383-0.56,0.384-0.925c-0.001-0.365-0.145-0.683-0.384-0.922C77.204,50.427,76.886,50.282,76.521,50.282z"/>
	<path fill="#010101" d="M30.907,30.356l-0.001-0.001L30.907,30.356z"/>
	<path fill="#010101" d="M30.905,30.355L30.905,30.355c-0.242-0.238-0.559-0.382-0.922-0.382h-4.456
		c-0.366,0-0.685,0.144-0.924,0.383c-0.238,0.239-0.381,0.557-0.383,0.923c0.002,0.366,0.144,0.682,0.383,0.923
		c0.24,0.238,0.559,0.382,0.925,0.382h4.456c0.365-0.001,0.682-0.143,0.924-0.382l-0.001,0.001c0.237-0.24,0.381-0.56,0.383-0.924
		C31.287,30.915,31.143,30.596,30.905,30.355z"/>
	<path fill="#010101" d="M76.521,29.974H40.069c-0.364,0-0.683,0.144-0.923,0.382c-0.238,0.24-0.381,0.559-0.382,0.924
		c0,0.364,0.144,0.682,0.381,0.923c0.242,0.238,0.561,0.382,0.924,0.382h36.453c0.365-0.001,0.684-0.144,0.924-0.383
		c0.239-0.239,0.383-0.558,0.384-0.922c-0.001-0.366-0.145-0.684-0.384-0.923C77.204,30.117,76.887,29.974,76.521,29.974z"/>
	<path fill="#010101" d="M30.906,70.973c-0.242-0.238-0.56-0.382-0.923-0.382h-4.456c-0.366,0-0.685,0.144-0.924,0.382
		c-0.239,0.241-0.382,0.56-0.384,0.924c0.001,0.364,0.145,0.683,0.383,0.923c0.24,0.239,0.559,0.383,0.924,0.383h4.456
		c0.364,0,0.682-0.144,0.921-0.382c0.238-0.241,0.382-0.56,0.384-0.924C31.286,71.533,31.144,71.216,30.906,70.973z"/>
	<path fill="#010101" d="M76.521,70.591H40.069c-0.364,0-0.683,0.144-0.924,0.383l0.001-0.001c-0.239,0.241-0.382,0.56-0.382,0.924
		c0,0.364,0.144,0.683,0.382,0.924l-0.001-0.001c0.242,0.239,0.561,0.383,0.924,0.383h36.453c0.365,0,0.684-0.144,0.924-0.382
		c0.238-0.241,0.383-0.56,0.384-0.924c-0.001-0.364-0.145-0.683-0.384-0.923C77.204,70.734,76.887,70.591,76.521,70.591z"/>
</g>
</svg>
